<?xml version="1.0" encoding="utf-8"?>
<!-- Generator: Adobe Illustrator 23.0.4, SVG Export Plug-In . SVG Version: 6.00 Build 0)  -->
<svg version="1.1" xmlns="http://www.w3.org/2000/svg" xmlns:xlink="http://www.w3.org/1999/xlink" x="0px" y="0px"
	 viewBox="0 0 633.02 80.51" style="enable-background:new 0 0 633.02 80.51;" xml:space="preserve">
<style type="text/css">
	.st0{display:none;}
	.st1{display:inline;fill:#003660;}
	.st2{fill:#003660;}
	.st3{fill:#FFFFFF;}
	.st4{fill:#C6CDD1;}
	.st5{fill:#007FA4;}
	.st6{fill:#003764;}
	.st7{fill:#C1C5C8;}
	.st8{fill:#007297;}
	.st9{fill:#15385F;}
	.st10{fill:#ADB1B4;}
	.st11{fill:#09859B;}
</style>
<g id="Layer_2" class="st0">
</g>
<g id="Template">
	<g>
		<path class="st9" d="M115.16,69.63h3.78V45.31h-3.78v-2.86h22.31v7.01h-3.4v-4.16H122.6v10.33h9.2v-2.69h3.02v8.36h-3.02v-2.69
			h-9.2v11.01h12.31V64.8h3.4v7.69h-23.15V69.63z M158.55,50.51h3.07v7.44h-2.98c-0.76-2.94-2.77-4.91-6.51-4.91
			c-3.99,0-7.06,3.19-7.06,8.36v0.34c0,5.38,2.94,8.23,7.18,8.23c3.11,0,5.92-1.81,6.3-5.38h3.23c-0.46,4.75-4.29,8.28-9.58,8.28
			c-6.13,0-10.75-4.33-10.75-11.13V61.4c0-6.72,4.79-11.26,10.67-11.26c3.7,0,5.54,1.47,6.43,3.23V50.51z M164.76,61.69v-0.34
			c0-6.6,4.58-11.21,10.79-11.21c6.22,0,10.8,4.58,10.8,11.17v0.34c0,6.64-4.58,11.21-10.84,11.21
			C169.26,72.86,164.76,68.12,164.76,61.69z M182.74,61.69V61.4c0-5.08-2.81-8.36-7.18-8.36c-4.41,0-7.18,3.28-7.18,8.32v0.34
			c0,5,2.73,8.28,7.18,8.28C179.97,69.96,182.74,66.65,182.74,61.69z M188.87,72.49v-2.73h3.07V53.37h-3.15v-2.86h6.64v3.7
			c1.01-2.06,3.4-4.07,6.89-4.07c4.41,0,7.65,2.35,7.65,8.7v10.92h3.07v2.73h-9.7v-2.73h3.15V58.58c0-3.7-1.68-5.42-5.08-5.42
			c-3.11,0-5.96,2.06-5.96,5.92v10.67h3.15v2.73H188.87z M214.91,61.69v-0.34c0-6.6,4.58-11.21,10.8-11.21s10.8,4.58,10.8,11.17
			v0.34c0,6.64-4.58,11.21-10.84,11.21S214.91,68.12,214.91,61.69z M232.89,61.69V61.4c0-5.08-2.81-8.36-7.18-8.36
			c-4.41,0-7.18,3.28-7.18,8.32v0.34c0,5,2.73,8.28,7.18,8.28C230.12,69.96,232.89,66.65,232.89,61.69z M239.02,72.49v-2.73h3.07
			V53.37h-3.15v-2.86h6.64v3.61c0.88-2.1,3.28-3.99,6.43-3.99c2.81,0,5.29,1.18,6.43,4.45c1.47-3.07,4.54-4.45,7.27-4.45
			c3.95,0,7.27,2.35,7.27,8.74v10.88h3.07v2.73h-9.7v-2.73h3.15V58.62c0-3.87-1.51-5.46-4.54-5.46c-2.86,0-5.67,1.93-5.67,5.88
			v10.71h3.15v2.73h-9.79v-2.73h3.15V58.62c0-3.87-1.51-5.46-4.54-5.46c-2.86,0-5.67,1.93-5.67,5.88v10.71h3.15v2.73H239.02z
			 M277.87,72.49v-2.73h3.07V53.37h-3.15v-2.86h6.64v19.24h3.15v2.73H277.87z M280.1,43.58c0-1.34,1.09-2.35,2.39-2.35
			c1.3,0,2.39,1.01,2.39,2.35c0,1.34-1.09,2.39-2.39,2.39C281.19,45.98,280.1,44.93,280.1,43.58z M306.77,50.51h3.07v7.44h-2.98
			c-0.76-2.94-2.77-4.91-6.51-4.91c-3.99,0-7.06,3.19-7.06,8.36v0.34c0,5.38,2.94,8.23,7.18,8.23c3.11,0,5.92-1.81,6.3-5.38H310
			c-0.46,4.75-4.29,8.28-9.58,8.28c-6.13,0-10.75-4.33-10.75-11.13V61.4c0-6.72,4.79-11.26,10.67-11.26c3.7,0,5.54,1.47,6.43,3.23
			V50.51z M322.09,72.49v-2.86h3.78V45.31h-3.78v-2.86h22.31v7.01H341v-4.16h-11.47v10.8h8.7v-2.9h3.02v8.74h-3.02v-2.9h-8.7v10.59
			h4.29v2.86H322.09z M345.99,61.69v-0.34c0-6.6,4.58-11.21,10.79-11.21c6.22,0,10.8,4.58,10.8,11.17v0.34
			c0,6.64-4.58,11.21-10.84,11.21C350.49,72.86,345.99,68.12,345.99,61.69z M363.97,61.69V61.4c0-5.08-2.81-8.36-7.18-8.36
			c-4.41,0-7.18,3.28-7.18,8.32v0.34c0,5,2.73,8.28,7.18,8.28C361.2,69.96,363.97,66.65,363.97,61.69z M370.1,72.49v-2.73h3.07
			V53.37h-3.15v-2.86h6.64v4.2c1.05-2.31,3.28-4.54,7.9-4.58v3.44c-4.79-0.04-7.9,1.47-7.9,6.85v9.33h3.36v2.73H370.1z
			 M386.27,61.73V61.4c0-6.64,4.24-11.26,10.29-11.26c5.08,0,9.87,3.07,9.87,10.92v1.13h-16.55c0.17,5,2.56,7.77,7.06,7.77
			c3.4,0,5.38-1.26,5.84-3.82h3.49c-0.76,4.41-4.41,6.72-9.37,6.72C390.68,72.86,386.27,68.5,386.27,61.73z M402.86,59.38
			c-0.34-4.54-2.69-6.34-6.3-6.34c-3.57,0-5.97,2.44-6.55,6.34H402.86z M426.26,50.51h3.07v7.44h-2.98
			c-0.76-2.94-2.77-4.91-6.51-4.91c-3.99,0-7.06,3.19-7.06,8.36v0.34c0,5.38,2.94,8.23,7.18,8.23c3.11,0,5.92-1.81,6.3-5.38h3.23
			c-0.46,4.75-4.28,8.28-9.58,8.28c-6.13,0-10.75-4.33-10.75-11.13V61.4c0-6.72,4.79-11.26,10.67-11.26c3.7,0,5.54,1.47,6.43,3.23
			V50.51z M439.65,72.86c-3.99,0-7.14-1.97-7.14-6.47c0-5.12,5.29-6.8,10.84-6.8h3.07v-1.6c0-3.7-1.47-4.96-4.62-4.96
			c-2.94,0-4.54,1.09-4.87,3.95h-3.49c0.42-5.17,4.37-6.85,8.53-6.85c4.12,0,7.94,1.51,7.94,7.86v11.76h2.94v2.73h-6.43v-3.03
			C444.94,71.73,442.8,72.86,439.65,72.86z M446.42,64.8v-2.73h-2.94c-4.33,0-7.48,1.13-7.48,4.33c0,1.97,1.01,3.7,3.99,3.7
			C443.6,70.09,446.42,68.2,446.42,64.8z M458.05,69.8v2.69h-2.94v-7.31h2.86c0.5,2.56,2.48,4.92,5.88,4.92
			c3.02,0,4.5-1.26,4.5-3.61c0-2.31-1.76-3.11-5.17-3.74c-5.71-1.05-7.64-3.07-7.64-6.72c0-3.7,3.15-5.88,6.93-5.88
			c3.19,0,4.75,1.13,5.5,2.69v-2.31h2.94v6.34h-2.86c-0.5-2.44-2.44-3.95-5.25-3.95c-2.48,0-4.03,0.97-4.03,3.03
			c0,1.93,1.09,2.9,5.12,3.7c4.49,0.88,7.77,2.02,7.77,6.64c0,3.91-2.69,6.59-7.9,6.59C460.36,72.86,458.64,71.14,458.05,69.8z
			 M477.07,66.98V53.46h-3.15v-2.94h3.15v-5h3.49v5h5.67v2.94h-5.67v13.19c0,2.1,0.97,3.19,3.15,3.19c0.88,0,1.85-0.17,2.86-0.5
			v2.94c-0.97,0.29-1.89,0.5-3.15,0.5C479.01,72.78,477.07,70.43,477.07,66.98z M498.2,72.49v-2.86h3.78V45.31h-3.78v-2.86h12.31
			c5.75,0,10.5,2.52,10.5,8.78v0.17c0,6.34-4.79,8.82-10.5,8.82h-4.87v9.41h4.12v2.86H498.2z M510.76,57.36
			c4.29,0,6.59-2.1,6.59-5.96v-0.17c0-4.33-2.52-5.92-6.59-5.92h-5.12v12.06H510.76z M523.27,72.49v-2.73h3.07V53.37h-3.15v-2.86
			h6.64v4.2c1.05-2.31,3.28-4.54,7.9-4.58v3.44c-4.79-0.04-7.9,1.47-7.9,6.85v9.33h3.36v2.73H523.27z M539.44,61.69v-0.34
			c0-6.6,4.58-11.21,10.8-11.21c6.22,0,10.8,4.58,10.8,11.17v0.34c0,6.64-4.58,11.21-10.84,11.21
			C543.94,72.86,539.44,68.12,539.44,61.69z M557.42,61.69V61.4c0-5.08-2.82-8.36-7.18-8.36c-4.41,0-7.18,3.28-7.18,8.32v0.34
			c0,5,2.73,8.28,7.18,8.28C554.65,69.96,557.42,66.65,557.42,61.69z M563.38,80.51v-2.94c2.48-0.21,3.23-1.47,3.23-3.4V53.37h-3.15
			v-2.86h6.64v23.36C570.1,78.07,568.25,80.34,563.38,80.51z M565.77,43.58c0-1.34,1.09-2.35,2.39-2.35s2.39,1.01,2.39,2.35
			c0,1.34-1.09,2.39-2.39,2.39S565.77,44.93,565.77,43.58z M574.64,61.73V61.4c0-6.64,4.24-11.26,10.29-11.26
			c5.08,0,9.87,3.07,9.87,10.92v1.13h-16.55c0.17,5,2.56,7.77,7.06,7.77c3.4,0,5.38-1.26,5.84-3.82h3.49
			c-0.76,4.41-4.41,6.72-9.37,6.72C579.05,72.86,574.64,68.5,574.64,61.73z M591.23,59.38c-0.34-4.54-2.69-6.34-6.3-6.34
			c-3.57,0-5.97,2.44-6.55,6.34H591.23z M614.62,50.51h3.07v7.44h-2.98c-0.76-2.94-2.77-4.91-6.51-4.91c-3.99,0-7.06,3.19-7.06,8.36
			v0.34c0,5.38,2.94,8.23,7.18,8.23c3.11,0,5.92-1.81,6.3-5.38h3.23c-0.46,4.75-4.28,8.28-9.58,8.28c-6.13,0-10.75-4.33-10.75-11.13
			V61.4c0-6.72,4.79-11.26,10.67-11.26c3.7,0,5.54,1.47,6.43,3.23V50.51z M623.52,66.98V53.46h-3.15v-2.94h3.15v-5h3.49v5h5.67v2.94
			h-5.67v13.19c0,2.1,0.97,3.19,3.15,3.19c0.88,0,1.85-0.17,2.86-0.5v2.94c-0.97,0.29-1.89,0.5-3.15,0.5
			C625.46,72.78,623.52,70.43,623.52,66.98z M353.6,0.51h3.64l8.69,19.97h-4.96l-1.72-4.23h-7.76l-1.66,4.23h-4.85L353.6,0.51z
			 M355.29,6.32l-2.43,6.2h4.88L355.29,6.32z M328.24,0.51h7.45c0.86,0,1.73,0.06,2.61,0.18c0.87,0.12,1.66,0.37,2.35,0.73
			c0.7,0.37,1.26,0.88,1.69,1.54c0.43,0.66,0.65,1.53,0.65,2.62c0,1.13-0.32,2.06-0.94,2.81c-0.63,0.74-1.46,1.27-2.5,1.59v0.06
			c0.66,0.09,1.25,0.28,1.79,0.55c0.54,0.27,1,0.62,1.38,1.04c0.39,0.42,0.68,0.92,0.89,1.48c0.21,0.56,0.31,1.17,0.31,1.81
			c0,1.05-0.23,1.93-0.68,2.64c-0.45,0.7-1.03,1.27-1.75,1.71c-0.71,0.43-1.52,0.74-2.41,0.93c-0.89,0.19-1.78,0.28-2.67,0.28h-8.18
			V0.51z M332.64,8.49h3.19c0.34,0,0.67-0.04,1-0.11c0.33-0.07,0.62-0.2,0.89-0.37c0.26-0.17,0.47-0.39,0.63-0.68
			c0.16-0.28,0.24-0.62,0.24-1.02c0-0.41-0.09-0.76-0.27-1.03c-0.18-0.27-0.41-0.48-0.69-0.63c-0.28-0.15-0.6-0.26-0.96-0.32
			c-0.36-0.07-0.71-0.1-1.04-0.1h-2.99V8.49z M332.64,16.75h3.95c0.34,0,0.68-0.04,1.03-0.11c0.35-0.07,0.66-0.21,0.94-0.39
			c0.28-0.19,0.51-0.43,0.69-0.73c0.18-0.3,0.27-0.67,0.27-1.1c0-0.47-0.12-0.85-0.35-1.14c-0.24-0.29-0.53-0.51-0.89-0.66
			c-0.36-0.15-0.74-0.25-1.16-0.31c-0.41-0.06-0.8-0.08-1.16-0.08h-3.33V16.75z M368.02,0.51h7.73c1.02,0,1.98,0.1,2.89,0.3
			c0.91,0.2,1.71,0.53,2.4,0.99c0.69,0.46,1.23,1.08,1.64,1.86c0.4,0.78,0.61,1.75,0.61,2.92c0,1.41-0.37,2.61-1.1,3.6
			c-0.73,0.99-1.8,1.61-3.22,1.88l5.08,8.43h-5.27l-4.17-7.98h-2.17v7.98h-4.4V0.51z M372.42,8.77h2.59c0.39,0,0.81-0.01,1.26-0.04
			c0.44-0.03,0.84-0.11,1.2-0.25c0.36-0.14,0.65-0.36,0.89-0.66c0.23-0.3,0.35-0.72,0.35-1.27c0-0.51-0.1-0.91-0.31-1.21
			c-0.21-0.3-0.47-0.53-0.79-0.69c-0.32-0.16-0.69-0.27-1.1-0.32c-0.41-0.06-0.82-0.08-1.21-0.08h-2.88V8.77z M294.17,0.51h3.64
			l8.69,19.97h-4.96l-1.72-4.23h-7.76l-1.66,4.23h-4.85L294.17,0.51z M295.86,6.32l-2.43,6.2h4.88L295.86,6.32z M394.27,0.51h3.64
			l8.69,19.97h-4.96l-1.72-4.23h-7.76l-1.66,4.23h-4.85L394.27,0.51z M395.96,6.32l-2.43,6.2h4.88L395.96,6.32z M268.82,0.5h7.45
			c0.86,0,1.73,0.06,2.61,0.18c0.87,0.12,1.66,0.37,2.35,0.73c0.7,0.37,1.26,0.88,1.69,1.54c0.43,0.66,0.65,1.53,0.65,2.62
			c0,1.13-0.32,2.06-0.94,2.81c-0.63,0.74-1.46,1.27-2.5,1.59v0.06c0.66,0.09,1.25,0.28,1.79,0.55c0.54,0.27,1,0.62,1.38,1.04
			c0.39,0.42,0.68,0.92,0.89,1.48c0.21,0.56,0.31,1.17,0.31,1.81c0,1.05-0.23,1.93-0.68,2.64c-0.45,0.7-1.03,1.27-1.75,1.71
			c-0.71,0.43-1.52,0.74-2.41,0.93c-0.89,0.19-1.78,0.28-2.67,0.28h-8.18V0.5z M273.22,8.49h3.19c0.34,0,0.67-0.04,1-0.11
			c0.33-0.07,0.62-0.2,0.89-0.37c0.26-0.17,0.47-0.39,0.63-0.68c0.16-0.28,0.24-0.62,0.24-1.02c0-0.41-0.09-0.76-0.27-1.03
			c-0.18-0.27-0.41-0.48-0.69-0.63c-0.28-0.15-0.6-0.26-0.96-0.32c-0.36-0.07-0.71-0.1-1.04-0.1h-2.99V8.49z M273.22,16.75h3.95
			c0.34,0,0.68-0.04,1.03-0.11c0.35-0.07,0.66-0.21,0.94-0.39c0.28-0.19,0.51-0.43,0.69-0.73c0.18-0.3,0.27-0.67,0.27-1.1
			c0-0.47-0.12-0.85-0.35-1.14c-0.24-0.29-0.53-0.51-0.89-0.66c-0.36-0.15-0.74-0.25-1.16-0.31c-0.41-0.06-0.8-0.08-1.16-0.08h-3.33
			V16.75z M308.59,0.5h7.73c1.02,0,1.98,0.1,2.89,0.3c0.91,0.2,1.71,0.53,2.4,0.99c0.69,0.46,1.23,1.08,1.64,1.86
			c0.4,0.78,0.61,1.75,0.61,2.92c0,1.41-0.37,2.61-1.1,3.6c-0.73,0.99-1.8,1.61-3.22,1.88l5.08,8.43h-5.27l-4.17-7.98h-2.17v7.98
			h-4.4V0.5z M312.99,8.77h2.59c0.39,0,0.81-0.01,1.26-0.04c0.44-0.03,0.84-0.11,1.2-0.25c0.36-0.14,0.65-0.36,0.89-0.66
			c0.23-0.3,0.35-0.72,0.35-1.27c0-0.51-0.1-0.91-0.31-1.21c-0.21-0.3-0.47-0.53-0.79-0.69c-0.32-0.16-0.69-0.27-1.1-0.32
			c-0.41-0.06-0.82-0.08-1.21-0.08h-2.88V8.77z M188.82,0.51h3.64l8.69,19.97h-4.96l-1.72-4.23h-7.76l-1.66,4.23h-4.85L188.82,0.51z
			 M190.51,6.32l-2.43,6.2h4.88L190.51,6.32z M248.09,0.51h3.64l8.69,19.97h-4.96l-1.72-4.23h-7.76l-1.66,4.23h-4.85L248.09,0.51z
			 M249.79,6.32l-2.43,6.2h4.88L249.79,6.32z M203.58,0.5h5.98l8.49,13.88h0.06V0.5h4.4v19.97h-5.75l-8.71-14.21h-0.06v14.21h-4.4
			V0.5z M231.09,4.4h-5.51V0.5h15.79V4.4h-5.88v16.08h-4.4V4.4z M124.94,20.79c-4.64,0-7.27-2.71-7.27-7.64l0.01-10.72h-2.26V0.51
			h7.27v1.92h-2.55l-0.01,10.44c0,4.24,1.5,5.88,4.86,5.88c3.22,0,5.15-1.3,5.15-6.25l0.01-10.07h-2.55V0.51h7.27v1.92h-2.26
			l-0.01,10.41C132.6,17.76,130.14,20.79,124.94,20.79z M152.38,13.83c-0.51,3.28-2.8,4.95-6.11,4.95c-4.36,0-6.96-3.11-6.96-8.26
			V10.3c0-5.09,2.8-8.34,6.98-8.34c3.08,0,5.18,1.3,6,4.67h2.06l0-6.11h-2.21l0,2.21C151.11,0.85,148.9,0,146.36,0
			c-5.57,0-9.59,4.33-9.59,10.32v0.23c0,6.22,3.59,10.24,9.45,10.24c4.45,0,7.63-2.22,8.41-6.72L152.38,13.83z M172.78,8.55
			c-2.35-0.63-4.29-1.26-4.29-2.72c0-0.92,0.72-2.29,2.69-2.29c1.97,0,3.44,0.68,4.5,2.08l2.8-2.44C176.71,0.42,173.46,0,171.68,0
			c-4.44,0-7.54,2.57-7.54,6.24c0,3.65,3.34,5.07,6.63,5.99c2.78,0.78,3.88,1.16,3.88,2.84c0,1.33-1.18,2.16-3.09,2.16
			c-3.05,0-4.73-2.02-5.22-2.72l-3.02,2.58c1.53,2.45,4.18,3.69,7.87,3.69c4.6,0,7.82-2.65,7.82-6.46
			C179.01,10.5,175.79,9.34,172.78,8.55z"/>
		<g>
			<rect x="18.59" y="0.72" class="st10" width="76.8" height="12.94"/>
			<rect y="17.25" class="st9" width="76.8" height="12.94"/>
			<rect y="50.32" class="st9" width="76.8" height="12.94"/>
			<rect x="18.59" y="33.79" class="st10" width="76.8" height="12.94"/>
			<rect x="18.59" y="66.86" class="st10" width="76.8" height="12.94"/>
		</g>
	</g>
</g>
</svg>
